<?xml version="1.0" encoding="UTF-8"?>
<!DOCTYPE svg PUBLIC "-//W3C//DTD SVG 1.1//EN" "http://www.w3.org/Graphics/SVG/1.1/DTD/svg11.dtd">
<!-- Creator: CorelDRAW -->
<svg xmlns="http://www.w3.org/2000/svg" xml:space="preserve" width="210mm" height="297mm" style="shape-rendering:geometricPrecision; text-rendering:geometricPrecision; image-rendering:optimizeQuality; fill-rule:evenodd; clip-rule:evenodd"
viewBox="0 0 210 297"
 xmlns:xlink="http://www.w3.org/1999/xlink">
 <defs>
  <style type="text/css">
   <![CDATA[
    .fil8 {fill:url(#id0)}
    .fil2 {fill:url(#id1)}
    .fil7 {fill:url(#id2)}
    .fil1 {fill:url(#id3)}
    .fil3 {fill:url(#id4)}
    .fil6 {fill:url(#id5)}
    .fil0 {fill:url(#id6)}
    .fil4 {fill:url(#id7)}
    .fil5 {fill:url(#id8)}
    .fil9 {fill:url(#id9)}
   ]]>
  </style>
  <linearGradient id="id0" gradientUnits="userSpaceOnUse" x1="92.5944" y1="170.002" x2="92.5944" y2="107.157">
   <stop offset="0" style="stop-color:#6E7280"/>
   <stop offset="0.180392" style="stop-color:#6E7280"/>
   <stop offset="0.54902" style="stop-color:#444852"/>
   <stop offset="0.658824" style="stop-color:#444852"/>
   <stop offset="0.839216" style="stop-color:#6D7282"/>
   <stop offset="1" style="stop-color:#6D7282"/>
  </linearGradient>
  <linearGradient id="id1" gradientUnits="userSpaceOnUse" xlink:href="#id0" x1="73.5646" y1="145.997" x2="73.5646" y2="135.98">
  </linearGradient>
  <linearGradient id="id2" gradientUnits="userSpaceOnUse" xlink:href="#id0" x1="112.03" y1="134.183" x2="112.03" y2="132.221">
  </linearGradient>
  <linearGradient id="id3" gradientUnits="userSpaceOnUse" xlink:href="#id0" x1="94.5676" y1="152.748" x2="94.5676" y2="147.113">
  </linearGradient>
  <linearGradient id="id4" gradientUnits="userSpaceOnUse" xlink:href="#id0" x1="75.0486" y1="137.396" x2="75.0486" y2="126.331">
  </linearGradient>
  <linearGradient id="id5" gradientUnits="userSpaceOnUse" xlink:href="#id0" x1="101.887" y1="133.636" x2="101.887" y2="130.23">
  </linearGradient>
  <linearGradient id="id6" gradientUnits="userSpaceOnUse" xlink:href="#id0" x1="79.6237" y1="154.001" x2="79.6237" y2="150.714">
  </linearGradient>
  <linearGradient id="id7" gradientUnits="userSpaceOnUse" xlink:href="#id0" x1="96.5066" y1="127.746" x2="96.5066" y2="117.683">
  </linearGradient>
  <linearGradient id="id8" gradientUnits="userSpaceOnUse" xlink:href="#id0" x1="98.0757" y1="171.417" x2="98.0757" y2="126.988">
  </linearGradient>
  <linearGradient id="id9" gradientUnits="userSpaceOnUse" x1="108.157" y1="165.875" x2="76.3948" y2="110.862">
   <stop offset="0" style="stop-color:#C4CAD6"/>
   <stop offset="0.0705882" style="stop-color:#89909C"/>
   <stop offset="0.0705882" style="stop-color:#89909C"/>
   <stop offset="0.109804" style="stop-color:#AEB3BC"/>
   <stop offset="0.109804" style="stop-color:#AEB3BC"/>
   <stop offset="0.141176" style="stop-color:#939CA8"/>
   <stop offset="0.239216" style="stop-color:#C1C8D8"/>
   <stop offset="0.25098" style="stop-color:#C1C8D8"/>
   <stop offset="0.321569" style="stop-color:#ACAFBC"/>
   <stop offset="0.34902" style="stop-color:#ACAFBC"/>
   <stop offset="0.458824" style="stop-color:#808795"/>
   <stop offset="0.470588" style="stop-color:#808795"/>
   <stop offset="0.521569" style="stop-color:#808795"/>
   <stop offset="0.709804" style="stop-color:#C8CFDD"/>
   <stop offset="0.768627" style="stop-color:#C8CFDD"/>
   <stop offset="0.85098" style="stop-color:#9AA1AC"/>
   <stop offset="0.941176" style="stop-color:#B6BAC6"/>
   <stop offset="1" style="stop-color:#C4C8D6"/>
  </linearGradient>
 </defs>
 <g id="Layer_x0020_1">
  <metadata id="CorelCorpID_0Corel-Layer"/>
  <g id="_145691432">
   <polygon id="_149276392" class="fil0" points="64.4299,150.714 65.7445,152.13 65.9394,152.306 66.1404,152.474 66.3475,152.634 66.5602,152.786 66.7784,152.929 67.0018,153.064 67.2304,153.19 67.4638,153.307 67.7018,153.415 67.9441,153.514 68.1909,153.604 68.4415,153.684 68.696,153.754 68.954,153.814 69.2155,153.865 69.4801,153.905 69.7477,153.935 70.0179,153.955 70.15,153.961 70.2851,153.967 70.4236,153.973 70.5651,153.977 70.7101,153.982 70.8581,153.985 71.0095,153.989 71.1638,153.992 71.3216,153.994 71.4825,153.996 71.6466,153.998 71.8138,153.999 71.9844,154 72.1581,154.001 72.335,154.001 72.515,154.001 91.6219,154.001 91.8291,154 92.0274,153.998 92.2169,153.993 92.3974,153.987 92.5694,153.98 92.7324,153.97 92.8866,153.959 93.0319,153.946 93.1686,153.932 93.2964,153.915 93.4154,153.897 93.5254,153.878 93.6268,153.856 93.7193,153.833 93.803,153.808 93.8777,153.782 94.0159,153.718 94.148,153.635 94.2744,153.534 94.3947,153.414 94.5093,153.275 94.6179,153.118 94.7208,152.942 94.8176,152.748 93.503,151.332 93.4062,151.526 93.3033,151.702 93.1947,151.859 93.0801,151.998 92.9598,152.118 92.8334,152.219 92.7013,152.302 92.5631,152.366 92.4884,152.393 92.4047,152.417 92.3122,152.441 92.2108,152.462 92.1008,152.482 91.9818,152.5 91.854,152.516 91.7173,152.531 91.572,152.543 91.4178,152.554 91.2548,152.564 91.0828,152.572 90.9023,152.578 90.7128,152.582 90.5145,152.585 90.3073,152.586 71.2004,152.586 71.0204,152.585 70.8435,152.585 70.6698,152.584 70.4992,152.583 70.332,152.582 70.1679,152.58 70.007,152.578 69.8492,152.576 69.6949,152.573 69.5435,152.57 69.3955,152.566 69.2505,152.562 69.109,152.557 68.9705,152.551 68.8354,152.545 68.7033,152.539 68.4331,152.519 68.1655,152.489 67.9009,152.449 67.6394,152.399 67.3814,152.338 67.1269,152.268 66.8763,152.188 66.6295,152.099 66.3872,152 66.1492,151.892 65.9158,151.774 65.6872,151.648 65.4638,151.513 65.2456,151.37 65.0329,151.219 64.8258,151.059 64.6248,150.89 "/>
   <polygon id="_149277496" class="fil1" points="93.503,151.332 94.8176,152.748 94.8679,152.642 94.9164,152.537 94.9634,152.432 95.0086,152.327 95.0525,152.222 95.0946,152.118 95.1353,152.014 95.1741,151.91 95.2116,151.806 95.2474,151.703 95.2816,151.599 95.3141,151.497 95.3452,151.394 95.3746,151.291 95.4025,151.189 95.4286,151.087 95.4534,150.986 95.4765,150.884 95.498,150.783 95.5178,150.682 95.5362,150.581 95.5528,150.481 95.568,150.38 95.5814,150.281 95.5935,150.181 95.6038,150.081 95.6126,149.982 95.6196,149.883 95.6252,149.784 95.6291,149.686 95.6315,149.588 95.6322,149.49 95.6279,149.359 95.6147,149.235 95.5927,149.116 95.5618,149.004 95.5223,148.897 95.4738,148.796 95.4165,148.701 95.3503,148.612 95.2755,148.529 93.9609,147.113 94.0357,147.196 94.1019,147.285 94.1592,147.381 94.2077,147.481 94.2472,147.588 94.2781,147.701 94.3001,147.819 94.3133,147.944 94.3176,148.074 94.3169,148.172 94.3145,148.27 94.3106,148.369 94.305,148.467 94.298,148.566 94.2892,148.666 94.2789,148.765 94.2668,148.865 94.2534,148.965 94.2382,149.065 94.2216,149.165 94.2032,149.266 94.1834,149.367 94.1619,149.468 94.1388,149.57 94.114,149.672 94.0879,149.774 94.06,149.876 94.0306,149.978 93.9995,150.081 93.967,150.184 93.9328,150.287 93.897,150.39 93.8595,150.494 93.8207,150.598 93.78,150.702 93.7379,150.806 93.694,150.911 93.6488,151.016 93.6018,151.121 93.5533,151.227 "/>
   <polygon id="_149277592" class="fil2" points="73.5538,144.582 74.8684,145.997 74.6771,145.783 74.5012,145.557 74.3405,145.32 74.1952,145.072 74.0651,144.813 73.9504,144.543 73.8509,144.263 73.7668,143.971 73.6979,143.668 73.6444,143.354 73.6061,143.029 73.5832,142.693 73.5755,142.346 73.5764,142.246 73.579,142.143 73.5833,142.036 73.5893,141.926 73.5971,141.812 73.6065,141.695 73.6176,141.574 73.6304,141.449 73.6451,141.321 73.6613,141.19 73.6793,141.054 73.6989,140.916 73.7204,140.773 73.7435,140.628 73.7684,140.478 73.7948,140.325 73.8232,140.169 73.8532,140.009 73.8849,139.845 73.9182,139.678 73.9534,139.507 73.9903,139.333 74.0288,139.155 74.069,138.974 74.111,138.789 74.1547,138.601 74.2001,138.409 74.2472,138.213 74.2961,138.014 74.3466,137.812 74.3988,137.606 74.4527,137.396 73.1381,135.98 73.0842,136.19 73.032,136.396 72.9815,136.599 72.9326,136.798 72.8855,136.993 72.8401,137.185 72.7964,137.374 72.7544,137.559 72.7142,137.74 72.6757,137.917 72.6388,138.092 72.6036,138.262 72.5703,138.429 72.5386,138.593 72.5086,138.753 72.4802,138.91 72.4538,139.062 72.4289,139.212 72.4058,139.358 72.3843,139.5 72.3647,139.638 72.3467,139.774 72.3305,139.905 72.3158,140.034 72.303,140.158 72.2919,140.279 72.2825,140.396 72.2747,140.51 72.2687,140.621 72.2644,140.727 72.2618,140.831 72.2609,140.93 72.2686,141.277 72.2915,141.613 72.3298,141.938 72.3833,142.252 72.4522,142.555 72.5363,142.847 72.6358,143.128 72.7505,143.398 72.8806,143.656 73.0259,143.904 73.1866,144.141 73.3625,144.367 "/>
   <polygon id="_149276128" class="fil3" points="73.1381,135.98 74.4527,137.396 76.9592,127.746 75.6446,126.331 "/>
   <polygon id="_149276320" class="fil4" points="75.6446,126.331 76.9592,127.746 77.0027,127.575 77.0465,127.407 77.0909,127.241 77.1356,127.078 77.1809,126.917 77.2267,126.76 77.273,126.604 77.3197,126.452 77.3671,126.302 77.4148,126.154 77.4631,126.01 77.5117,125.868 77.5609,125.728 77.6106,125.592 77.6607,125.457 77.7112,125.326 77.7625,125.197 77.8141,125.071 77.8663,124.947 77.9188,124.826 77.972,124.708 78.0256,124.592 78.0797,124.479 78.1342,124.368 78.1894,124.26 78.2449,124.155 78.301,124.052 78.3574,123.953 78.4145,123.855 78.472,123.761 78.53,123.669 78.5884,123.579 78.7099,123.403 78.8392,123.229 78.9763,123.056 79.121,122.884 79.2739,122.713 79.4344,122.544 79.6028,122.375 79.7789,122.208 79.9631,122.043 80.155,121.878 80.3548,121.714 80.5622,121.552 80.7777,121.391 81.0009,121.232 81.232,121.073 81.4708,120.916 81.6491,120.804 81.831,120.696 82.0167,120.591 82.2061,120.49 82.3995,120.392 82.5966,120.298 82.7975,120.208 83.002,120.121 83.2107,120.037 83.4229,119.958 83.6391,119.881 83.8588,119.809 84.0825,119.739 84.3099,119.674 84.5412,119.612 84.7761,119.553 85.0151,119.498 85.2578,119.447 85.5043,119.399 85.7544,119.354 86.0085,119.313 86.2662,119.276 86.5278,119.242 86.7931,119.212 87.0624,119.186 87.3354,119.163 87.6122,119.143 87.8927,119.127 88.1772,119.115 88.4653,119.106 88.7572,119.101 89.0528,119.099 117.369,119.099 116.054,117.683 87.7382,117.683 87.4426,117.685 87.1507,117.69 86.8626,117.699 86.5781,117.712 86.2976,117.727 86.0208,117.747 85.7478,117.77 85.4785,117.797 85.2132,117.827 84.9516,117.86 84.6939,117.898 84.4398,117.939 84.1897,117.983 83.9432,118.031 83.7005,118.082 83.4615,118.137 83.2266,118.196 82.9953,118.258 82.7679,118.324 82.5442,118.393 82.3245,118.465 82.1083,118.542 81.8961,118.622 81.6874,118.705 81.4829,118.792 81.282,118.883 81.0849,118.977 80.8915,119.074 80.7021,119.175 80.5164,119.28 80.3345,119.388 80.1562,119.501 79.9174,119.658 79.6863,119.816 79.4631,119.976 79.2476,120.137 79.0402,120.299 78.8404,120.462 78.6485,120.627 78.4643,120.793 78.2882,120.96 78.1198,121.128 77.9593,121.298 77.8064,121.468 77.6617,121.64 77.5246,121.814 77.3953,121.988 77.2738,122.164 77.2154,122.253 77.1574,122.345 77.0999,122.44 77.0428,122.537 76.9864,122.637 76.9303,122.739 76.8748,122.845 76.8196,122.953 76.7651,123.063 76.711,123.176 76.6574,123.292 76.6042,123.41 76.5517,123.531 76.4995,123.655 76.4479,123.781 76.3966,123.91 76.3461,124.042 76.296,124.176 76.2463,124.313 76.1971,124.452 76.1485,124.594 76.1002,124.739 76.0525,124.886 76.0051,125.036 75.9584,125.189 75.9121,125.344 75.8663,125.502 75.821,125.662 75.7763,125.825 75.7319,125.991 75.6881,126.159 "/>
   <polygon id="_149276344" class="fil5" points="70.8216,161.229 72.1362,162.645 72.7275,163.199 73.3332,163.738 73.9526,164.262 74.5855,164.77 75.2316,165.262 75.8908,165.737 76.5624,166.195 77.2464,166.636 77.9423,167.06 78.65,167.467 79.369,167.855 80.0992,168.225 80.8399,168.577 81.5914,168.909 82.3529,169.222 83.1244,169.516 83.9052,169.79 84.6954,170.043 85.4945,170.277 86.3022,170.489 87.1181,170.681 87.9423,170.851 88.774,170.999 89.6132,171.126 90.4593,171.23 91.3125,171.311 92.1719,171.37 93.0376,171.405 93.909,171.417 95.5257,171.376 97.1212,171.255 98.6936,171.055 100.241,170.779 101.761,170.428 103.252,170.004 104.712,169.51 106.138,168.948 107.53,168.318 108.885,167.624 110.201,166.868 111.476,166.05 112.708,165.174 113.895,164.241 115.035,163.254 116.126,162.213 117.167,161.122 118.154,159.982 119.087,158.795 119.963,157.563 120.781,156.288 121.537,154.972 122.231,153.617 122.86,152.226 123.423,150.799 123.917,149.339 124.341,147.848 124.692,146.328 124.968,144.781 125.168,143.208 125.289,141.613 125.33,139.996 125.329,139.735 125.325,139.474 125.319,139.214 125.31,138.954 125.299,138.695 125.286,138.437 125.271,138.179 125.253,137.922 125.233,137.665 125.211,137.409 125.187,137.153 125.161,136.898 125.132,136.644 125.102,136.39 125.07,136.137 125.036,135.885 125.001,135.632 124.964,135.381 124.924,135.13 124.884,134.88 124.841,134.63 124.797,134.381 124.752,134.132 124.705,133.885 124.657,133.637 124.607,133.39 124.556,133.144 124.503,132.898 124.45,132.653 124.395,132.409 124.339,132.165 124.281,131.921 124.201,131.601 124.114,131.289 124.019,130.985 123.917,130.689 123.808,130.401 123.691,130.121 123.567,129.85 123.435,129.588 123.295,129.334 123.148,129.088 122.992,128.851 122.828,128.623 122.657,128.404 121.342,126.988 121.514,127.207 121.678,127.435 121.833,127.672 121.981,127.918 122.12,128.172 122.252,128.435 122.377,128.706 122.493,128.985 122.602,129.273 122.705,129.569 122.799,129.873 122.887,130.185 122.967,130.505 123.024,130.749 123.08,130.993 123.135,131.237 123.189,131.483 123.241,131.728 123.292,131.975 123.342,132.221 123.39,132.469 123.437,132.717 123.483,132.965 123.527,133.214 123.569,133.464 123.61,133.715 123.649,133.965 123.686,134.217 123.722,134.469 123.756,134.721 123.788,134.975 123.818,135.228 123.846,135.483 123.872,135.737 123.896,135.993 123.918,136.249 123.938,136.506 123.956,136.763 123.971,137.021 123.985,137.279 123.996,137.539 124.004,137.798 124.01,138.058 124.014,138.319 124.015,138.581 123.975,140.197 123.853,141.793 123.653,143.365 123.377,144.912 123.026,146.432 122.602,147.923 122.108,149.383 121.546,150.81 120.917,152.202 120.223,153.556 119.466,154.872 118.648,156.147 117.772,157.379 116.84,158.566 115.852,159.706 114.811,160.798 113.72,161.838 112.58,162.826 111.393,163.758 110.161,164.635 108.886,165.452 107.57,166.209 106.216,166.903 104.824,167.532 103.397,168.094 101.937,168.589 100.446,169.012 98.9261,169.363 97.379,169.639 95.8066,169.839 94.2111,169.961 92.5944,170.002 91.723,169.99 90.8573,169.954 89.9979,169.896 89.1447,169.814 88.2986,169.71 87.4594,169.584 86.6277,169.435 85.8035,169.265 84.9876,169.074 84.1799,168.861 83.3808,168.628 82.5906,168.374 81.8098,168.1 81.0383,167.806 80.2768,167.493 79.5253,167.161 78.7846,166.809 78.0544,166.439 77.3354,166.051 76.6277,165.645 75.9318,165.221 75.2478,164.779 74.5762,164.321 73.917,163.846 73.2709,163.354 72.638,162.846 72.0186,162.323 71.4129,161.784 "/>
   <polygon id="_145691120" class="fil6" points="91.3491,130.23 92.6637,131.646 92.791,131.762 92.9378,131.866 93.1044,131.958 93.2904,132.037 93.496,132.105 93.7211,132.16 93.966,132.202 94.2303,132.233 94.5142,132.252 94.8176,132.258 107.538,132.258 107.751,132.259 107.961,132.263 108.166,132.27 108.368,132.279 108.566,132.291 108.76,132.306 108.95,132.324 109.136,132.344 109.318,132.367 109.496,132.392 109.67,132.42 109.841,132.451 110.007,132.485 110.17,132.521 110.328,132.56 110.483,132.602 110.634,132.647 110.781,132.694 110.924,132.744 111.063,132.796 111.198,132.851 111.329,132.909 111.456,132.97 111.58,133.033 111.699,133.099 111.815,133.168 111.926,133.239 112.034,133.313 112.138,133.39 112.238,133.469 112.333,133.551 112.425,133.636 111.111,132.221 111.019,132.136 110.923,132.054 110.823,131.974 110.719,131.897 110.612,131.823 110.5,131.752 110.385,131.683 110.265,131.617 110.142,131.554 110.014,131.494 109.883,131.435 109.748,131.38 109.609,131.328 109.466,131.278 109.319,131.231 109.168,131.187 109.014,131.145 108.855,131.106 108.693,131.069 108.526,131.036 108.356,131.005 108.181,130.976 108.003,130.951 107.821,130.928 107.635,130.908 107.445,130.89 107.251,130.876 107.054,130.863 106.852,130.854 106.646,130.847 106.437,130.843 106.223,130.842 93.503,130.842 93.1996,130.836 92.9157,130.818 92.6514,130.787 92.4065,130.744 92.1814,130.689 91.9758,130.622 91.7898,130.542 91.6232,130.45 91.4764,130.346 "/>
   <polygon id="_145691144" class="fil7" points="111.111,132.221 112.425,133.636 112.537,133.743 112.646,133.851 112.75,133.96 112.851,134.071 112.949,134.183 111.635,132.768 111.537,132.655 111.436,132.544 111.331,132.435 111.223,132.327 "/>
   <polygon id="_149276392" class="fil0" points="64.4299,150.714 65.7445,152.13 65.9394,152.306 66.1404,152.474 66.3475,152.634 66.5602,152.786 66.7784,152.929 67.0018,153.064 67.2304,153.19 67.4638,153.307 67.7018,153.415 67.9441,153.514 68.1909,153.604 68.4415,153.684 68.696,153.754 68.954,153.814 69.2155,153.865 69.4801,153.905 69.7477,153.935 70.0179,153.955 70.15,153.961 70.2851,153.967 70.4236,153.973 70.5651,153.977 70.7101,153.982 70.8581,153.985 71.0095,153.989 71.1638,153.992 71.3216,153.994 71.4825,153.996 71.6466,153.998 71.8138,153.999 71.9844,154 72.1581,154.001 72.335,154.001 72.515,154.001 91.6219,154.001 91.8291,154 92.0274,153.998 92.2169,153.993 92.3974,153.987 92.5694,153.98 92.7324,153.97 92.8866,153.959 93.0319,153.946 93.1686,153.932 93.2964,153.915 93.4154,153.897 93.5254,153.878 93.6268,153.856 93.7193,153.833 93.803,153.808 93.8777,153.782 94.0159,153.718 94.148,153.635 94.2744,153.534 94.3947,153.414 94.5093,153.275 94.6179,153.118 94.7208,152.942 94.8176,152.748 93.503,151.332 93.4062,151.526 93.3033,151.702 93.1947,151.859 93.0801,151.998 92.9598,152.118 92.8334,152.219 92.7013,152.302 92.5631,152.366 92.4884,152.393 92.4047,152.417 92.3122,152.441 92.2108,152.462 92.1008,152.482 91.9818,152.5 91.854,152.516 91.7173,152.531 91.572,152.543 91.4178,152.554 91.2548,152.564 91.0828,152.572 90.9023,152.578 90.7128,152.582 90.5145,152.585 90.3073,152.586 71.2004,152.586 71.0204,152.585 70.8435,152.585 70.6698,152.584 70.4992,152.583 70.332,152.582 70.1679,152.58 70.007,152.578 69.8492,152.576 69.6949,152.573 69.5435,152.57 69.3955,152.566 69.2505,152.562 69.109,152.557 68.9705,152.551 68.8354,152.545 68.7033,152.539 68.4331,152.519 68.1655,152.489 67.9009,152.449 67.6394,152.399 67.3814,152.338 67.1269,152.268 66.8763,152.188 66.6295,152.099 66.3872,152 66.1492,151.892 65.9158,151.774 65.6872,151.648 65.4638,151.513 65.2456,151.37 65.0329,151.219 64.8258,151.059 64.6248,150.89 "/>
   <polygon id="_149277496" class="fil1" points="93.503,151.332 94.8176,152.748 94.8679,152.642 94.9164,152.537 94.9634,152.432 95.0086,152.327 95.0525,152.222 95.0946,152.118 95.1353,152.014 95.1741,151.91 95.2116,151.806 95.2474,151.703 95.2816,151.599 95.3141,151.497 95.3452,151.394 95.3746,151.291 95.4025,151.189 95.4286,151.087 95.4534,150.986 95.4765,150.884 95.498,150.783 95.5178,150.682 95.5362,150.581 95.5528,150.481 95.568,150.38 95.5814,150.281 95.5935,150.181 95.6038,150.081 95.6126,149.982 95.6196,149.883 95.6252,149.784 95.6291,149.686 95.6315,149.588 95.6322,149.49 95.6279,149.359 95.6147,149.235 95.5927,149.116 95.5618,149.004 95.5223,148.897 95.4738,148.796 95.4165,148.701 95.3503,148.612 95.2755,148.529 93.9609,147.113 94.0357,147.196 94.1019,147.285 94.1592,147.381 94.2077,147.481 94.2472,147.588 94.2781,147.701 94.3001,147.819 94.3133,147.944 94.3176,148.074 94.3169,148.172 94.3145,148.27 94.3106,148.369 94.305,148.467 94.298,148.566 94.2892,148.666 94.2789,148.765 94.2668,148.865 94.2534,148.965 94.2382,149.065 94.2216,149.165 94.2032,149.266 94.1834,149.367 94.1619,149.468 94.1388,149.57 94.114,149.672 94.0879,149.774 94.06,149.876 94.0306,149.978 93.9995,150.081 93.967,150.184 93.9328,150.287 93.897,150.39 93.8595,150.494 93.8207,150.598 93.78,150.702 93.7379,150.806 93.694,150.911 93.6488,151.016 93.6018,151.121 93.5533,151.227 "/>
   <polygon id="_149277592" class="fil2" points="73.5538,144.582 74.8684,145.997 74.6771,145.783 74.5012,145.557 74.3405,145.32 74.1952,145.072 74.0651,144.813 73.9504,144.543 73.8509,144.263 73.7668,143.971 73.6979,143.668 73.6444,143.354 73.6061,143.029 73.5832,142.693 73.5755,142.346 73.5764,142.246 73.579,142.143 73.5833,142.036 73.5893,141.926 73.5971,141.812 73.6065,141.695 73.6176,141.574 73.6304,141.449 73.6451,141.321 73.6613,141.19 73.6793,141.054 73.6989,140.916 73.7204,140.773 73.7435,140.628 73.7684,140.478 73.7948,140.325 73.8232,140.169 73.8532,140.009 73.8849,139.845 73.9182,139.678 73.9534,139.507 73.9903,139.333 74.0288,139.155 74.069,138.974 74.111,138.789 74.1547,138.601 74.2001,138.409 74.2472,138.213 74.2961,138.014 74.3466,137.812 74.3988,137.606 74.4527,137.396 73.1381,135.98 73.0842,136.19 73.032,136.396 72.9815,136.599 72.9326,136.798 72.8855,136.993 72.8401,137.185 72.7964,137.374 72.7544,137.559 72.7142,137.74 72.6757,137.917 72.6388,138.092 72.6036,138.262 72.5703,138.429 72.5386,138.593 72.5086,138.753 72.4802,138.91 72.4538,139.062 72.4289,139.212 72.4058,139.358 72.3843,139.5 72.3647,139.638 72.3467,139.774 72.3305,139.905 72.3158,140.034 72.303,140.158 72.2919,140.279 72.2825,140.396 72.2747,140.51 72.2687,140.621 72.2644,140.727 72.2618,140.831 72.2609,140.93 72.2686,141.277 72.2915,141.613 72.3298,141.938 72.3833,142.252 72.4522,142.555 72.5363,142.847 72.6358,143.128 72.7505,143.398 72.8806,143.656 73.0259,143.904 73.1866,144.141 73.3625,144.367 "/>
   <polygon id="_149276128" class="fil3" points="73.1381,135.98 74.4527,137.396 76.9592,127.746 75.6446,126.331 "/>
   <polygon id="_149276320" class="fil4" points="75.6446,126.331 76.9592,127.746 77.0027,127.575 77.0465,127.407 77.0909,127.241 77.1356,127.078 77.1809,126.917 77.2267,126.76 77.273,126.604 77.3197,126.452 77.3671,126.302 77.4148,126.154 77.4631,126.01 77.5117,125.868 77.5609,125.728 77.6106,125.592 77.6607,125.457 77.7112,125.326 77.7625,125.197 77.8141,125.071 77.8663,124.947 77.9188,124.826 77.972,124.708 78.0256,124.592 78.0797,124.479 78.1342,124.368 78.1894,124.26 78.2449,124.155 78.301,124.052 78.3574,123.953 78.4145,123.855 78.472,123.761 78.53,123.669 78.5884,123.579 78.7099,123.403 78.8392,123.229 78.9763,123.056 79.121,122.884 79.2739,122.713 79.4344,122.544 79.6028,122.375 79.7789,122.208 79.9631,122.043 80.155,121.878 80.3548,121.714 80.5622,121.552 80.7777,121.391 81.0009,121.232 81.232,121.073 81.4708,120.916 81.6491,120.804 81.831,120.696 82.0167,120.591 82.2061,120.49 82.3995,120.392 82.5966,120.298 82.7975,120.208 83.002,120.121 83.2107,120.037 83.4229,119.958 83.6391,119.881 83.8588,119.809 84.0825,119.739 84.3099,119.674 84.5412,119.612 84.7761,119.553 85.0151,119.498 85.2578,119.447 85.5043,119.399 85.7544,119.354 86.0085,119.313 86.2662,119.276 86.5278,119.242 86.7931,119.212 87.0624,119.186 87.3354,119.163 87.6122,119.143 87.8927,119.127 88.1772,119.115 88.4653,119.106 88.7572,119.101 89.0528,119.099 117.369,119.099 116.054,117.683 87.7382,117.683 87.4426,117.685 87.1507,117.69 86.8626,117.699 86.5781,117.712 86.2976,117.727 86.0208,117.747 85.7478,117.77 85.4785,117.797 85.2132,117.827 84.9516,117.86 84.6939,117.898 84.4398,117.939 84.1897,117.983 83.9432,118.031 83.7005,118.082 83.4615,118.137 83.2266,118.196 82.9953,118.258 82.7679,118.324 82.5442,118.393 82.3245,118.465 82.1083,118.542 81.8961,118.622 81.6874,118.705 81.4829,118.792 81.282,118.883 81.0849,118.977 80.8915,119.074 80.7021,119.175 80.5164,119.28 80.3345,119.388 80.1562,119.501 79.9174,119.658 79.6863,119.816 79.4631,119.976 79.2476,120.137 79.0402,120.299 78.8404,120.462 78.6485,120.627 78.4643,120.793 78.2882,120.96 78.1198,121.128 77.9593,121.298 77.8064,121.468 77.6617,121.64 77.5246,121.814 77.3953,121.988 77.2738,122.164 77.2154,122.253 77.1574,122.345 77.0999,122.44 77.0428,122.537 76.9864,122.637 76.9303,122.739 76.8748,122.845 76.8196,122.953 76.7651,123.063 76.711,123.176 76.6574,123.292 76.6042,123.41 76.5517,123.531 76.4995,123.655 76.4479,123.781 76.3966,123.91 76.3461,124.042 76.296,124.176 76.2463,124.313 76.1971,124.452 76.1485,124.594 76.1002,124.739 76.0525,124.886 76.0051,125.036 75.9584,125.189 75.9121,125.344 75.8663,125.502 75.821,125.662 75.7763,125.825 75.7319,125.991 75.6881,126.159 "/>
   <polygon id="_149276344" class="fil5" points="70.8216,161.229 72.1362,162.645 72.7275,163.199 73.3332,163.738 73.9526,164.262 74.5855,164.77 75.2316,165.262 75.8908,165.737 76.5624,166.195 77.2464,166.636 77.9423,167.06 78.65,167.467 79.369,167.855 80.0992,168.225 80.8399,168.577 81.5914,168.909 82.3529,169.222 83.1244,169.516 83.9052,169.79 84.6954,170.043 85.4945,170.277 86.3022,170.489 87.1181,170.681 87.9423,170.851 88.774,170.999 89.6132,171.126 90.4593,171.23 91.3125,171.311 92.1719,171.37 93.0376,171.405 93.909,171.417 95.5257,171.376 97.1212,171.255 98.6936,171.055 100.241,170.779 101.761,170.428 103.252,170.004 104.712,169.51 106.138,168.948 107.53,168.318 108.885,167.624 110.201,166.868 111.476,166.05 112.708,165.174 113.895,164.241 115.035,163.254 116.126,162.213 117.167,161.122 118.154,159.982 119.087,158.795 119.963,157.563 120.781,156.288 121.537,154.972 122.231,153.617 122.86,152.226 123.423,150.799 123.917,149.339 124.341,147.848 124.692,146.328 124.968,144.781 125.168,143.208 125.289,141.613 125.33,139.996 125.329,139.735 125.325,139.474 125.319,139.214 125.31,138.954 125.299,138.695 125.286,138.437 125.271,138.179 125.253,137.922 125.233,137.665 125.211,137.409 125.187,137.153 125.161,136.898 125.132,136.644 125.102,136.39 125.07,136.137 125.036,135.885 125.001,135.632 124.964,135.381 124.924,135.13 124.884,134.88 124.841,134.63 124.797,134.381 124.752,134.132 124.705,133.885 124.657,133.637 124.607,133.39 124.556,133.144 124.503,132.898 124.45,132.653 124.395,132.409 124.339,132.165 124.281,131.921 124.201,131.601 124.114,131.289 124.019,130.985 123.917,130.689 123.808,130.401 123.691,130.121 123.567,129.85 123.435,129.588 123.295,129.334 123.148,129.088 122.992,128.851 122.828,128.623 122.657,128.404 121.342,126.988 121.514,127.207 121.678,127.435 121.833,127.672 121.981,127.918 122.12,128.172 122.252,128.435 122.377,128.706 122.493,128.985 122.602,129.273 122.705,129.569 122.799,129.873 122.887,130.185 122.967,130.505 123.024,130.749 123.08,130.993 123.135,131.237 123.189,131.483 123.241,131.728 123.292,131.975 123.342,132.221 123.39,132.469 123.437,132.717 123.483,132.965 123.527,133.214 123.569,133.464 123.61,133.715 123.649,133.965 123.686,134.217 123.722,134.469 123.756,134.721 123.788,134.975 123.818,135.228 123.846,135.483 123.872,135.737 123.896,135.993 123.918,136.249 123.938,136.506 123.956,136.763 123.971,137.021 123.985,137.279 123.996,137.539 124.004,137.798 124.01,138.058 124.014,138.319 124.015,138.581 123.975,140.197 123.853,141.793 123.653,143.365 123.377,144.912 123.026,146.432 122.602,147.923 122.108,149.383 121.546,150.81 120.917,152.202 120.223,153.556 119.466,154.872 118.648,156.147 117.772,157.379 116.84,158.566 115.852,159.706 114.811,160.798 113.72,161.838 112.58,162.826 111.393,163.758 110.161,164.635 108.886,165.452 107.57,166.209 106.216,166.903 104.824,167.532 103.397,168.094 101.937,168.589 100.446,169.012 98.9261,169.363 97.379,169.639 95.8066,169.839 94.2111,169.961 92.5944,170.002 91.723,169.99 90.8573,169.954 89.9979,169.896 89.1447,169.814 88.2986,169.71 87.4594,169.584 86.6277,169.435 85.8035,169.265 84.9876,169.074 84.1799,168.861 83.3808,168.628 82.5906,168.374 81.8098,168.1 81.0383,167.806 80.2768,167.493 79.5253,167.161 78.7846,166.809 78.0544,166.439 77.3354,166.051 76.6277,165.645 75.9318,165.221 75.2478,164.779 74.5762,164.321 73.917,163.846 73.2709,163.354 72.638,162.846 72.0186,162.323 71.4129,161.784 "/>
   <polygon id="_145691120" class="fil6" points="91.3491,130.23 92.6637,131.646 92.791,131.762 92.9378,131.866 93.1044,131.958 93.2904,132.037 93.496,132.105 93.7211,132.16 93.966,132.202 94.2303,132.233 94.5142,132.252 94.8176,132.258 107.538,132.258 107.751,132.259 107.961,132.263 108.166,132.27 108.368,132.279 108.566,132.291 108.76,132.306 108.95,132.324 109.136,132.344 109.318,132.367 109.496,132.392 109.67,132.42 109.841,132.451 110.007,132.485 110.17,132.521 110.328,132.56 110.483,132.602 110.634,132.647 110.781,132.694 110.924,132.744 111.063,132.796 111.198,132.851 111.329,132.909 111.456,132.97 111.58,133.033 111.699,133.099 111.815,133.168 111.926,133.239 112.034,133.313 112.138,133.39 112.238,133.469 112.333,133.551 112.425,133.636 111.111,132.221 111.019,132.136 110.923,132.054 110.823,131.974 110.719,131.897 110.612,131.823 110.5,131.752 110.385,131.683 110.265,131.617 110.142,131.554 110.014,131.494 109.883,131.435 109.748,131.38 109.609,131.328 109.466,131.278 109.319,131.231 109.168,131.187 109.014,131.145 108.855,131.106 108.693,131.069 108.526,131.036 108.356,131.005 108.181,130.976 108.003,130.951 107.821,130.928 107.635,130.908 107.445,130.89 107.251,130.876 107.054,130.863 106.852,130.854 106.646,130.847 106.437,130.843 106.223,130.842 93.503,130.842 93.1996,130.836 92.9157,130.818 92.6514,130.787 92.4065,130.744 92.1814,130.689 91.9758,130.622 91.7898,130.542 91.6232,130.45 91.4764,130.346 "/>
   <polygon id="_145691144" class="fil7" points="111.111,132.221 112.425,133.636 112.537,133.743 112.646,133.851 112.75,133.96 112.851,134.071 112.949,134.183 111.635,132.768 111.537,132.655 111.436,132.544 111.331,132.435 111.223,132.327 "/>
  </g>
  <path class="fil8" d="M92.5944 107.16c-17.3504,0 -31.421,14.0706 -31.421,31.4209 0,2.8467 0.3796,5.605 1.0901,8.2272 0.0631,0.2329 0.1275,0.4653 0.197,0.6954 0.8811,2.9182 3.3453,4.8841 6.2428,5.0358 0.6952,0.0364 1.5279,0.0464 2.4971,0.0464l19.1069 0c1.1279,0 1.8799,-0.0731 2.2558,-0.2193 0.3759,-0.1461 0.6892,-0.4909 0.9399,-1.0339 0.543,-1.1279 0.8146,-2.2141 0.8146,-3.2584 0,-0.7102 -0.376,-1.1697 -1.1279,-1.3785 -0.3342,-0.0836 -1.3159,-0.1254 -2.9451,-0.1254l-10.1511 0c-5.2217,0 -7.8326,-1.8798 -7.8326,-5.6395 0,-1.0443 0.2924,-2.6944 0.8772,-4.9502l2.5065 -9.6498c0.4595,-1.838 1.0026,-3.227 1.6292,-4.1669 0.6266,-0.9399 1.5872,-1.828 2.8824,-2.6631 1.8795,-1.2118 4.4071,-1.8172 7.582,-1.8172l28.3159 0c-5.7548,-6.4562 -14.1326,-10.5235 -23.4597,-10.5235zm-23.4594 52.3184c5.7551,6.4558 14.1325,10.5235 23.4594,10.5235 17.3503,0 31.4209,-14.0706 31.4209,-31.421 0,-2.7916 -0.4333,-5.481 -1.0486,-8.0752 -0.82,-3.4569 -2.8286,-5.5675 -6.5773,-5.8941 -0.1766,-0.0154 -0.3565,-0.0136 -0.5389,-0.021 -0.2341,-0.0096 -0.473,-0.0144 -0.7157,-0.0144l-20.0026 0c-1.7545,0 -2.8311,0.4434 -3.2584,1.3159 -0.5752,1.1744 -0.8773,2.2976 -0.8773,3.3837 0,1.0443 0.8355,1.5665 2.5065,1.5665l12.7201 0c2.2976,0 3.9268,0.4595 4.8876,1.3786 1.2115,1.1279 1.8172,2.5064 1.8172,4.1356 0,0.7519 -0.188,1.8589 -0.564,3.321l-2.7571 10.6524c-0.5848,2.2976 -1.1279,3.885 -1.6291,4.7622 -0.5013,0.8773 -1.295,1.7128 -2.3812,2.5065 -1.2114,0.8355 -2.3811,1.3576 -3.509,1.5665 -1.1279,0.2089 -3.3002,0.3133 -6.5167,0.3133l-26.4358 0z"/>
  <path class="fil9" d="M92.2758 106.947c-17.3504,0 -31.421,14.0706 -31.421,31.4209 0,2.8467 0.3796,5.605 1.0901,8.2272 0.0631,0.2329 0.1275,0.4653 0.197,0.6954 0.8811,2.9182 3.3453,4.8841 6.2428,5.0358 0.6952,0.0364 1.5279,0.0464 2.4971,0.0464l19.1069 0c1.1279,0 1.8799,-0.0731 2.2558,-0.2193 0.3759,-0.1461 0.6892,-0.4909 0.9399,-1.0339 0.543,-1.1279 0.8146,-2.2141 0.8146,-3.2584 0,-0.7102 -0.376,-1.1697 -1.1279,-1.3785 -0.3342,-0.0836 -1.3159,-0.1254 -2.9451,-0.1254l-10.1511 0c-5.2217,0 -7.8326,-1.8798 -7.8326,-5.6395 0,-1.0443 0.2924,-2.6944 0.8772,-4.9502l2.5065 -9.6498c0.4595,-1.838 1.0026,-3.227 1.6292,-4.1669 0.6266,-0.9399 1.5872,-1.828 2.8824,-2.6631 1.8795,-1.2118 4.4071,-1.8172 7.582,-1.8172l28.3159 0c-5.7548,-6.4562 -14.1326,-10.5235 -23.4597,-10.5235zm-23.4594 52.3184c5.7551,6.4558 14.1325,10.5235 23.4594,10.5235 17.3503,0 31.4209,-14.0706 31.4209,-31.421 0,-2.7916 -0.4333,-5.481 -1.0486,-8.0752 -0.82,-3.4569 -2.8286,-5.5675 -6.5773,-5.8941 -0.1766,-0.0154 -0.3565,-0.0136 -0.5389,-0.021 -0.2341,-0.0096 -0.473,-0.0144 -0.7157,-0.0144l-20.0026 0c-1.7545,0 -2.8311,0.4434 -3.2584,1.3159 -0.5752,1.1744 -0.8773,2.2976 -0.8773,3.3837 0,1.0443 0.8355,1.5665 2.5065,1.5665l12.7201 0c2.2976,0 3.9268,0.4595 4.8876,1.3786 1.2115,1.1279 1.8172,2.5064 1.8172,4.1356 0,0.7519 -0.188,1.8589 -0.564,3.321l-2.7571 10.6524c-0.5848,2.2976 -1.1279,3.885 -1.6291,4.7622 -0.5013,0.8773 -1.295,1.7128 -2.3812,2.5065 -1.2114,0.8355 -2.3811,1.3576 -3.509,1.5665 -1.1279,0.2089 -3.3002,0.3133 -6.5167,0.3133l-26.4358 0z"/>
 </g>
</svg>
